<?xml version="1.0" encoding="utf-8"?>
<!-- Generator: Adobe Illustrator 16.0.0, SVG Export Plug-In . SVG Version: 6.00 Build 0)  -->
<!DOCTYPE svg PUBLIC "-//W3C//DTD SVG 1.1//EN" "http://www.w3.org/Graphics/SVG/1.1/DTD/svg11.dtd">
<svg version="1.1" id="Layer_1" xmlns="http://www.w3.org/2000/svg" xmlns:xlink="http://www.w3.org/1999/xlink" x="0px" y="0px"
	 width="25.667px" height="25.667px" viewBox="0 0 25.667 25.667" enable-background="new 0 0 25.667 25.667" xml:space="preserve">
<g>
	<path fill="#414042" d="M3.165,3.2c-4.225,4.226-4.225,11.075,0,15.301c4.226,4.225,11.076,4.225,15.3,0
		c4.225-4.226,4.225-11.075,0-15.3C14.24-1.024,7.39-1.024,3.165,3.2z M16.417,16.453c-3.094,3.095-8.112,3.096-11.206,0
		c-3.095-3.094-3.094-8.112,0-11.206c3.094-3.094,8.11-3.094,11.206,0C19.512,8.342,19.512,13.359,16.417,16.453z"/>
	<path fill="#414042" d="M25.094,22.891c0.62,0.619,0.62,1.622,0,2.24l0,0c-0.617,0.619-1.619,0.619-2.238-0.001l-5.978-5.978
		c-0.618-0.617-0.618-1.62,0-2.238l0,0c0.618-0.619,1.621-0.618,2.238,0L25.094,22.891z"/>
</g>
</svg>
