<?xml version="1.0" encoding="utf-8"?>
<!-- Generator: Adobe Illustrator 16.0.0, SVG Export Plug-In . SVG Version: 6.00 Build 0)  -->
<!DOCTYPE svg PUBLIC "-//W3C//DTD SVG 1.1//EN" "http://www.w3.org/Graphics/SVG/1.1/DTD/svg11.dtd">
<svg version="1.1" id="Layer_1" xmlns="http://www.w3.org/2000/svg" xmlns:xlink="http://www.w3.org/1999/xlink" x="0px" y="0px"
	 width="90px" height="90px" viewBox="0 0 90 90" enable-background="new 0 0 90 90" xml:space="preserve">
<path fill="#414042" d="M76.152,25.831c-1.39-0.393-2.802-0.628-4.211-0.704C67.761,17.679,59.787,12.95,51.198,12.95
	c-2.3,0-4.587,0.335-6.799,0.996c-4.048,1.212-7.744,3.531-10.629,6.636c-1.595-1.006-3.447-1.555-5.351-1.555
	c-4.085,0-7.696,2.454-9.274,6.074c-2.819,0.023-5.551,0.659-8.12,1.889C4.37,30.174,0.07,36.982,0.07,44.333
	C0.07,54.94,8.7,63.57,19.306,63.57h5.798v-5.062h-5.798c-7.816,0-14.175-6.358-14.175-14.175c0-5.415,3.171-10.43,8.079-12.778
	c1.931-0.925,3.982-1.394,6.096-1.394c0.461,0,0.938,0.024,1.417,0.07l2.298,0.225l0.434-2.268c0.454-2.376,2.542-4.101,4.963-4.101
	c1.449,0,2.79,0.616,3.777,1.735l2.073,2.35l1.86-2.522c2.41-3.266,5.862-5.701,9.72-6.856c1.74-0.52,3.54-0.784,5.349-0.784
	c7.188,0,13.829,4.212,16.918,10.73l0.724,1.527l2.162-0.107c1.256,0.006,2.525,0.188,3.779,0.542
	c6.086,1.709,10.336,7.315,10.336,13.631c0,7.817-6.358,14.175-14.175,14.175h-7.546v5.062h7.546
	c10.607,0,19.236-8.63,19.236-19.237C90.179,35.759,84.41,28.15,76.152,25.831z"/>
<path fill="#414042" d="M54.167,55.272c-0.002-1.604,1.295-2.9,2.896-2.897l0,0c1.601-0.003,2.897,1.293,2.896,2.896v7.563
	c0.002,1.6-1.295,2.894-2.896,2.895l0,0c-1.602,0.001-2.896-1.295-2.896-2.893V55.272z"/>
<path fill="#414042" d="M54.834,73.105c-0.002-1.604,1.295-2.9,2.896-2.897l0,0c1.601-0.003,2.897,1.293,2.896,2.896v7.563
	c0.002,1.6-1.295,2.894-2.896,2.895l0,0c-1.602,0.001-2.896-1.295-2.896-2.893V73.105z"/>
<path fill="#414042" d="M29.104,73.938c-0.002-1.604,1.295-2.9,2.896-2.897l0,0c1.601-0.003,2.897,1.293,2.896,2.896v7.563
	c0.002,1.6-1.295,2.894-2.896,2.895l0,0c-1.602,0.001-2.896-1.295-2.896-2.893V73.938z"/>
<path fill="#414042" d="M42.104,65.272c-0.002-1.604,1.295-2.9,2.896-2.897l0,0c1.6-0.003,2.897,1.293,2.895,2.896v7.563
	c0.002,1.6-1.295,2.894-2.895,2.895l0,0c-1.602,0.001-2.896-1.295-2.896-2.893V65.272z"/>
<path fill="#414042" d="M29.104,56.605c-0.002-1.604,1.295-2.9,2.896-2.897l0,0c1.6-0.003,2.897,1.293,2.895,2.896v7.563
	c0.002,1.6-1.295,2.894-2.895,2.895l0,0c-1.602,0.001-2.896-1.295-2.896-2.893V56.605z"/>
</svg>
