<?xml version="1.0" encoding="utf-8"?>
<!-- Generator: Adobe Illustrator 16.0.0, SVG Export Plug-In . SVG Version: 6.00 Build 0)  -->
<!DOCTYPE svg PUBLIC "-//W3C//DTD SVG 1.1//EN" "http://www.w3.org/Graphics/SVG/1.1/DTD/svg11.dtd">
<svg version="1.1" id="Layer_1" xmlns="http://www.w3.org/2000/svg" xmlns:xlink="http://www.w3.org/1999/xlink" x="0px" y="0px"
	 width="25.667px" height="25.667px" viewBox="0 0 25.667 25.667" enable-background="new 0 0 25.667 25.667" xml:space="preserve">
<g>
	<path fill="#414042" d="M22.649,14.125c-0.719,0.723-1.888,0.723-2.608,0.002L9.092,3.178c-0.721-0.721-0.721-1.888,0-2.609l0,0
		c0.721-0.721,1.888-0.721,2.609,0l10.95,10.95C23.37,12.238,23.372,13.407,22.649,14.125L22.649,14.125z"/>
	<path fill="#414042" d="M9.092,25.098c0.72,0.721,1.888,0.721,2.608,0.002l10.949-10.949c0.721-0.723,0.721-1.89,0-2.61l0,0
		c-0.721-0.72-1.888-0.72-2.608,0L9.091,22.49C8.371,23.208,8.371,24.379,9.092,25.098L9.092,25.098z"/>
</g>
</svg>
