<?xml version="1.0" encoding="utf-8"?>
<!-- Generator: Adobe Illustrator 16.0.0, SVG Export Plug-In . SVG Version: 6.00 Build 0)  -->
<!DOCTYPE svg PUBLIC "-//W3C//DTD SVG 1.1//EN" "http://www.w3.org/Graphics/SVG/1.1/DTD/svg11.dtd">
<svg version="1.1" id="Layer_1" xmlns="http://www.w3.org/2000/svg" xmlns:xlink="http://www.w3.org/1999/xlink" x="0px" y="0px"
	 width="90px" height="90px" viewBox="0 0 90 90" enable-background="new 0 0 90 90" xml:space="preserve">
<path fill="#414042" d="M24.932,1.864c-0.001-0.98,0.792-1.772,1.77-1.771l0,0c0.978-0.002,1.771,0.79,1.769,1.769V9.02
	c0.001,0.978-0.791,1.768-1.769,1.769l0,0c-0.978,0-1.77-0.792-1.77-1.768V1.864z"/>
<path fill="#414042" d="M7.262,10.649C6.567,9.958,6.566,8.837,7.26,8.146l0,0c0.689-0.692,1.811-0.693,2.501,0l5.061,5.061
	c0.692,0.69,0.691,1.809,0.001,2.501l0,0c-0.691,0.693-1.812,0.691-2.502,0L7.262,10.649z"/>
<path fill="#414042" d="M0.977,29.358c-0.978,0.001-1.772-0.792-1.77-1.77l0,0c-0.001-0.977,0.79-1.77,1.77-1.769h7.157
	c0.977-0.002,1.767,0.792,1.77,1.769l0,0c0,0.979-0.793,1.77-1.77,1.77H0.977z"/>
<path fill="#414042" d="M41.082,15.71c-0.689,0.693-1.813,0.696-2.502,0l0,0c-0.692-0.689-0.694-1.809-0.002-2.5l5.064-5.063
	c0.689-0.688,1.807-0.688,2.499,0.001l0,0c0.695,0.692,0.693,1.811,0.002,2.499L41.082,15.71z"/>
<path fill="#414042" d="M18.379,31.948c0.099-0.195,0.224-0.37,0.333-0.558c-0.552-1.153-0.868-2.439-0.868-3.803
	c0-4.891,3.966-8.856,8.857-8.856c4.171,0,7.657,2.885,8.598,6.764c0.88-0.729,1.804-1.398,2.77-1.998
	c-1.678-4.663-6.126-8.002-11.367-8.003c-6.679,0-12.093,5.414-12.094,12.093c0,1.668,0.357,3.248,0.97,4.693
	C16.501,32.113,17.433,31.985,18.379,31.948z"/>
<path fill="#414042" d="M70.816,71.403H19.181c-10.606,0-19.236-8.631-19.236-19.237c0-7.352,4.299-14.159,10.955-17.344
	c2.568-1.23,5.3-1.866,8.12-1.889c1.578-3.621,5.189-6.074,9.274-6.074c1.903,0,3.755,0.549,5.351,1.555
	c2.886-3.104,6.581-5.424,10.629-6.636c2.212-0.661,4.5-0.996,6.799-0.996c8.589,0,16.563,4.729,20.743,12.177
	c1.408,0.076,2.82,0.312,4.211,0.704c8.258,2.319,14.025,9.928,14.025,18.502C90.055,62.772,81.425,71.403,70.816,71.403z
	 M19.181,37.994c-2.114,0-4.166,0.469-6.096,1.394c-4.908,2.349-8.079,7.364-8.079,12.778c0,7.817,6.358,14.175,14.175,14.175
	h51.635c7.816,0,14.176-6.357,14.176-14.175c0-6.316-4.25-11.922-10.336-13.631c-1.254-0.354-2.523-0.536-3.779-0.542L68.715,38.1
	l-0.724-1.527c-3.089-6.518-9.729-10.73-16.918-10.73c-1.81,0-3.608,0.264-5.349,0.784c-3.858,1.156-7.311,3.591-9.721,6.856
	l-1.86,2.522l-2.073-2.35c-0.987-1.119-2.328-1.735-3.777-1.735c-2.421,0-4.509,1.725-4.963,4.101l-0.434,2.268l-2.298-0.225
	C20.12,38.018,19.643,37.994,19.181,37.994z"/>
</svg>
