<?xml version="1.0" encoding="utf-8"?>
<!-- Generator: Adobe Illustrator 16.0.0, SVG Export Plug-In . SVG Version: 6.00 Build 0)  -->
<!DOCTYPE svg PUBLIC "-//W3C//DTD SVG 1.1//EN" "http://www.w3.org/Graphics/SVG/1.1/DTD/svg11.dtd">
<svg version="1.1" id="Layer_1" xmlns="http://www.w3.org/2000/svg" xmlns:xlink="http://www.w3.org/1999/xlink" x="0px" y="0px"
	 width="90px" height="90px" viewBox="0 0 90 90" enable-background="new 0 0 90 90" xml:space="preserve">
<g>
	<path fill="#414042" d="M25.208,45c0,10.932,8.861,19.793,19.793,19.793C55.934,64.792,64.796,55.932,64.796,45
		c-0.003-10.931-8.862-19.792-19.794-19.793C34.071,25.207,25.21,34.068,25.208,45z M59.497,45c0,8.004-6.487,14.498-14.496,14.497
		c-8.005,0.001-14.497-6.49-14.497-14.498c0-8.005,6.491-14.495,14.497-14.495C53.01,30.504,59.501,36.994,59.497,45z"/>
	<g>
		<path fill="#414042" d="M42.105,2.898C42.103,1.294,43.4-0.003,45.001,0l0,0c1.601-0.003,2.897,1.293,2.896,2.896V14.61
			c0.002,1.6-1.295,2.894-2.896,2.895l0,0c-1.601,0.001-2.896-1.295-2.896-2.893V2.898z"/>
		<path fill="#414042" d="M42.105,75.393c-0.003-1.603,1.295-2.902,2.896-2.898l0,0c1.601-0.001,2.897,1.295,2.896,2.896v11.715
			c0.002,1.6-1.295,2.895-2.896,2.896l0,0c-1.601,0.001-2.896-1.296-2.896-2.896V75.393z"/>
	</g>
	<g>
		<path fill="#414042" d="M13.184,17.276c-1.137-1.13-1.138-2.966-0.003-4.096l0,0c1.129-1.133,2.964-1.134,4.095,0l8.282,8.283
			c1.133,1.129,1.132,2.961,0.002,4.093l0,0c-1.132,1.134-2.966,1.132-4.095,0.001L13.184,17.276z"/>
		<path fill="#414042" d="M64.445,68.538c-1.137-1.131-1.141-2.968-0.004-4.097l0,0c1.129-1.133,2.963-1.135,4.096,0l8.283,8.285
			c1.13,1.129,1.13,2.959,0,4.092l0,0c-1.133,1.135-2.965,1.132-4.094,0.002L64.445,68.538z"/>
	</g>
	<g>
		<path fill="#414042" d="M2.897,47.896C1.296,47.898-0.003,46.602,0,45l0,0c-0.002-1.599,1.293-2.896,2.896-2.895H14.61
			c1.598-0.003,2.892,1.296,2.896,2.895l0,0c0,1.602-1.298,2.896-2.896,2.896H2.897z"/>
		<path fill="#414042" d="M75.393,47.896c-1.603,0.002-2.904-1.293-2.896-2.896l0,0c-0.003-1.599,1.291-2.896,2.893-2.895h11.719
			c1.597,0,2.89,1.296,2.895,2.895l0,0c0,1.604-1.298,2.896-2.895,2.896H75.393z"/>
	</g>
	<g>
		<path fill="#414042" d="M17.276,76.818c-1.13,1.135-2.967,1.14-4.096,0.002l0,0c-1.133-1.129-1.133-2.963,0-4.094l8.284-8.283
			c1.129-1.131,2.96-1.129,4.095-0.002l0,0c1.132,1.134,1.129,2.966,0,4.096L17.276,76.818z"/>
		<path fill="#414042" d="M68.537,25.559c-1.13,1.135-2.967,1.139-4.096,0l0,0c-1.133-1.128-1.137-2.96-0.004-4.092l8.289-8.287
			c1.129-1.127,2.957-1.126,4.09,0.002l0,0c1.137,1.133,1.134,2.965,0.004,4.091L68.537,25.559z"/>
	</g>
</g>
</svg>
