<?xml version="1.0" encoding="utf-8"?>
<!-- Generator: Adobe Illustrator 16.0.0, SVG Export Plug-In . SVG Version: 6.00 Build 0)  -->
<!DOCTYPE svg PUBLIC "-//W3C//DTD SVG 1.1//EN" "http://www.w3.org/Graphics/SVG/1.1/DTD/svg11.dtd">
<svg version="1.1" id="Layer_1" xmlns="http://www.w3.org/2000/svg" xmlns:xlink="http://www.w3.org/1999/xlink" x="0px" y="0px"
	 width="90px" height="90px" viewBox="0 0 90 90" enable-background="new 0 0 90 90" xml:space="preserve">
<path fill="#414042" d="M9.609,64.32c-0.798,1.248-0.914,2.815-0.3,4.164c0.259,0.572,0.642,1.089,1.116,1.496
	c3.347,2.892,7.129,5.137,11.244,6.672c14.136,5.277,29.87,1.455,40.088-9.73c3.216-3.507,5.702-7.576,7.386-12.087
	C76.285,35.7,66.611,14.352,47.574,7.247c-4.131-1.542-8.467-2.324-12.883-2.322c-1.812,0-3.436,1.132-4.075,2.835
	c-0.636,1.706-0.156,3.624,1.211,4.813c8.833,7.692,12.001,20.26,7.889,31.278c-4.112,11.017-14.741,18.435-26.453,18.459
	C11.788,62.314,10.41,63.07,9.609,64.32z M13.258,66.665c13.188-0.024,25.613-8.149,30.521-21.297
	c4.907-13.146,0.843-27.427-9.102-36.087C38.463,9.279,42.3,9.93,46.053,11.33c16.821,6.278,25.342,25.079,19.029,41.988
	c-1.518,4.064-3.754,7.649-6.516,10.666c-8.703,9.524-22.595,13.354-35.374,8.586c-3.753-1.4-7.069-3.42-9.933-5.896
	C13.257,66.664,13.257,66.664,13.258,66.665z"/>
<path fill="#414042" d="M83.734,45.419c-0.053-0.089-0.106-0.173-0.168-0.258L82.1,43.113l0.865-2.375
	c0.354-0.971,0.256-2.036-0.267-2.922c-0.134-0.227-0.298-0.441-0.486-0.639c-0.646-0.669-1.551-1.054-2.483-1.054
	c-0.355,0-0.711,0.055-1.053,0.164l-2.412,0.771l-1.994-1.545c-0.601-0.465-1.351-0.721-2.109-0.721
	c-0.479,0-0.954,0.113-1.393,0.306c0.5,2.858,0.668,5.756,0.502,8.647l1.332-0.901l0.032-3.59l2.837,2.196l3.426-1.091l-1.229,3.374
	l2.089,2.912l-3.596-0.107l-2.142,2.895l-0.992-3.443l-1.889-0.623c-0.179,1.755-0.479,3.502-0.902,5.232l0.262,0.911
	c0.081,0.276,0.195,0.541,0.34,0.788c0.514,0.869,1.376,1.469,2.367,1.641c0.201,0.035,0.402,0.053,0.604,0.053
	c1.094,0,2.137-0.524,2.787-1.404l1.508-2.036l2.635,0.076c1.279,0,2.451-0.7,3.059-1.826
	C84.365,47.741,84.342,46.448,83.734,45.419z"/>
<g>
	<path fill="#414042" d="M84.855,16.181c-0.282-1.5-1.328-2.727-2.732-3.251c-0.122-0.045-0.243-0.084-0.37-0.119l-3.951-1.084
		l-1.338-3.885c-0.43-1.24-1.384-2.2-2.575-2.645C73.575,5.08,73.245,5,72.904,4.957c-1.637-0.201-3.252,0.548-4.161,1.934
		l-2.259,3.443l-4.101,0.091c-1.649,0.037-3.142,1.011-3.842,2.515c-0.08,0.171-0.146,0.347-0.202,0.524
		c2.861,2.549,5.329,5.537,7.318,8.892l0.781-2.582l-3.976-4.995l6.377-0.143l3.519-5.354l2.086,6.046l6.147,1.684l-5.09,3.88
		l0.281,6.398l-5.229-3.648l-3.484,1.323c0.188,0.382,0.38,0.763,0.557,1.153c0.426,0.939,0.801,1.892,1.146,2.851l1.17-0.444
		l3.358,2.346c0.304,0.21,0.625,0.378,0.959,0.503c1.171,0.437,2.49,0.351,3.613-0.275c1.448-0.803,2.317-2.359,2.245-4.015
		l-0.18-4.112l3.271-2.494C84.527,19.474,85.167,17.807,84.855,16.181z"/>
</g>
</svg>
