<?xml version="1.0" encoding="utf-8"?>
<!-- Generator: Adobe Illustrator 16.0.0, SVG Export Plug-In . SVG Version: 6.00 Build 0)  -->
<!DOCTYPE svg PUBLIC "-//W3C//DTD SVG 1.1//EN" "http://www.w3.org/Graphics/SVG/1.1/DTD/svg11.dtd">
<svg version="1.1" id="Layer_1" xmlns="http://www.w3.org/2000/svg" xmlns:xlink="http://www.w3.org/1999/xlink" x="0px" y="0px"
	 width="90px" height="90px" viewBox="0 0 90 90" enable-background="new 0 0 90 90" xml:space="preserve">
<path fill="#414042" d="M70.816,80.654H19.181c-10.606,0-19.236-8.631-19.236-19.235c0-7.353,4.299-14.159,10.955-17.344
	c2.568-1.23,5.3-1.866,8.12-1.889c1.578-3.621,5.189-6.074,9.274-6.074c1.903,0,3.755,0.549,5.351,1.555
	c2.886-3.104,6.581-5.424,10.629-6.636c2.212-0.661,4.5-0.996,6.799-0.996c8.589,0,16.563,4.729,20.743,12.177
	c1.408,0.076,2.82,0.312,4.211,0.704c8.258,2.319,14.021,9.928,14.021,18.502C90.055,72.023,81.425,80.654,70.816,80.654z
	 M19.181,47.247c-2.114,0-4.166,0.469-6.096,1.394c-4.908,2.353-8.079,7.364-8.079,12.778c0,7.815,6.358,14.175,14.175,14.175
	h51.635c7.813,0,14.176-6.354,14.176-14.175c0-6.315-4.25-11.922-10.336-13.631c-1.254-0.354-2.523-0.536-3.779-0.542l-2.162,0.107
	l-0.724-1.527c-3.089-6.518-9.729-10.73-16.918-10.73c-1.81,0-3.608,0.264-5.349,0.784c-3.858,1.156-7.313,3.591-9.725,6.856
	l-1.86,2.522l-2.073-2.35c-0.987-1.119-2.328-1.735-3.777-1.735c-2.421,0-4.509,1.725-4.963,4.101l-0.434,2.268l-2.298-0.226
	C20.12,47.271,19.643,47.247,19.181,47.247z"/>
<path fill="#414042" d="M70.816,80.654H19.181c-10.606,0-19.236-8.631-19.236-19.235c0-7.353,4.299-14.159,10.955-17.344
	c2.568-1.23,5.3-1.866,8.12-1.889c1.578-3.621,5.189-6.074,9.274-6.074c1.903,0,3.755,0.549,5.351,1.555
	c2.886-3.104,6.581-5.424,10.629-6.636c2.212-0.661,4.5-0.996,6.799-0.996c8.589,0,16.563,4.729,20.743,12.177
	c1.408,0.076,2.82,0.312,4.211,0.704c8.258,2.319,14.021,9.928,14.021,18.502C90.055,72.023,81.425,80.654,70.816,80.654z
	 M19.181,47.247c-2.114,0-4.166,0.469-6.096,1.394c-4.908,2.353-8.079,7.364-8.079,12.778c0,7.815,6.358,14.175,14.175,14.175
	h51.635c7.813,0,14.176-6.354,14.176-14.175c0-6.315-4.25-11.922-10.336-13.631c-1.254-0.354-2.523-0.536-3.779-0.542l-2.162,0.107
	l-0.724-1.527c-3.089-6.518-9.729-10.73-16.918-10.73c-1.81,0-3.608,0.264-5.349,0.784c-3.858,1.156-7.313,3.591-9.725,6.856
	l-1.86,2.522l-2.073-2.35c-0.987-1.119-2.328-1.735-3.777-1.735c-2.421,0-4.509,1.725-4.963,4.101l-0.434,2.268l-2.298-0.226
	C20.12,47.271,19.643,47.247,19.181,47.247z"/>
<g>
	<path fill="#414042" d="M31.224,2.294c-0.001-1.184,0.956-2.141,2.137-2.138l0,0c1.181-0.002,2.138,0.954,2.137,2.137v8.644
		c0.001,1.181-0.956,2.136-2.137,2.137l0,0c-1.182,0-2.137-0.956-2.137-2.135V2.294z"/>
</g>
<g>
	<path fill="#414042" d="M9.882,12.904c-0.839-0.833-0.84-2.188-0.002-3.022l0,0c0.833-0.836,2.187-0.837,3.022,0l6.111,6.112
		c0.836,0.833,0.835,2.185,0.002,3.021l0,0c-0.836,0.837-2.189,0.835-3.022,0L9.882,12.904z"/>
</g>
<g>
	<path fill="#414042" d="M2.29,35.501c-1.182,0.001-2.14-0.956-2.138-2.138l0,0c-0.001-1.18,0.954-2.137,2.137-2.136h8.644
		c1.18-0.002,2.135,0.956,2.137,2.136l0,0c0,1.182-0.958,2.138-2.137,2.138H2.29z"/>
	<path fill="#414042" d="M55.224,35.501c-0.87,0.001-1.577-0.954-1.573-2.138l0,0c-0.003-1.18,0.701-2.137,1.57-2.136h6.363
		c0.866,0,1.569,0.956,1.57,2.136l0,0c0,1.184-0.704,2.138-1.57,2.138H55.224z"/>
</g>
<g>
	<path fill="#414042" d="M50.729,19.017c-0.834,0.837-2.188,0.84-3.021,0l0,0c-0.837-0.833-0.84-2.185-0.005-3.02l6.117-6.115
		c0.834-0.832,2.183-0.831,3.019,0.001l0,0c0.838,0.836,0.836,2.188,0.002,3.019L50.729,19.017z"/>
</g>
<g>
	<path fill="#414042" d="M23.441,37.358c-0.498-1.235-0.779-2.582-0.779-3.995c0-5.908,4.791-10.697,10.698-10.697
		c5.161,0,9.467,3.653,10.473,8.514c0.147-0.048,0.292-0.104,0.44-0.148c1.104-0.33,2.228-0.579,3.362-0.745
		c-1.414-6.588-7.264-11.528-14.274-11.529c-8.066,0-14.605,6.539-14.607,14.606c0,2.384,0.583,4.627,1.595,6.615
		C21.194,38.906,22.246,38.014,23.441,37.358z"/>
</g>
</svg>
