<?xml version="1.0" encoding="utf-8"?>
<!-- Generator: Adobe Illustrator 16.0.0, SVG Export Plug-In . SVG Version: 6.00 Build 0)  -->
<!DOCTYPE svg PUBLIC "-//W3C//DTD SVG 1.1//EN" "http://www.w3.org/Graphics/SVG/1.1/DTD/svg11.dtd">
<svg version="1.1" id="Layer_1" xmlns="http://www.w3.org/2000/svg" xmlns:xlink="http://www.w3.org/1999/xlink" x="0px" y="0px"
	 width="90px" height="90px" viewBox="0 0 90 90" enable-background="new 0 0 90 90" xml:space="preserve">
<g>
	<path fill="#414042" d="M70.816,63.57H19.181c-10.606,0-19.236-8.631-19.236-19.237c0-7.352,4.299-14.159,10.955-17.344
		c2.568-1.23,5.3-1.866,8.12-1.889c1.578-3.621,5.189-6.074,9.274-6.074c1.903,0,3.755,0.549,5.351,1.555
		c2.886-3.104,6.581-5.424,10.629-6.636c2.212-0.661,4.5-0.996,6.799-0.996c8.589,0,16.563,4.729,20.743,12.177
		c1.408,0.076,2.82,0.312,4.211,0.704c8.258,2.319,14.025,9.928,14.025,18.502C90.055,54.939,81.425,63.57,70.816,63.57z
		 M19.181,30.161c-2.114,0-4.166,0.469-6.096,1.394c-4.908,2.349-8.079,7.364-8.079,12.778c0,7.817,6.358,14.175,14.175,14.175
		h51.635c7.816,0,14.176-6.357,14.176-14.175c0-6.316-4.25-11.922-10.336-13.631c-1.254-0.354-2.523-0.536-3.779-0.542l-2.162,0.107
		l-0.724-1.527c-3.089-6.518-9.729-10.73-16.918-10.73c-1.81,0-3.608,0.264-5.349,0.784c-3.858,1.156-7.311,3.591-9.721,6.856
		l-1.86,2.522l-2.073-2.35c-0.987-1.119-2.328-1.735-3.777-1.735c-2.421,0-4.509,1.725-4.963,4.101l-0.434,2.268l-2.298-0.225
		C20.12,30.185,19.643,30.161,19.181,30.161z"/>
</g>
</svg>
