<?xml version="1.0" encoding="utf-8"?>
<!-- Generator: Adobe Illustrator 16.0.0, SVG Export Plug-In . SVG Version: 6.00 Build 0)  -->
<!DOCTYPE svg PUBLIC "-//W3C//DTD SVG 1.1//EN" "http://www.w3.org/Graphics/SVG/1.1/DTD/svg11.dtd">
<svg version="1.1" id="Layer_1" xmlns="http://www.w3.org/2000/svg" xmlns:xlink="http://www.w3.org/1999/xlink" x="0px" y="0px"
	 width="90px" height="90px" viewBox="0 0 90 90" enable-background="new 0 0 90 90" xml:space="preserve">
<path fill="#414042" d="M70.818,63.57H19.183c-10.606,0-19.236-8.631-19.236-19.236c0-7.353,4.299-14.159,10.955-17.344
	c2.568-1.23,5.3-1.866,8.12-1.889c1.578-3.621,5.189-6.074,9.274-6.074c1.903,0,3.755,0.549,5.351,1.555
	c2.887-3.104,6.582-5.424,10.629-6.636c2.212-0.661,4.5-0.996,6.8-0.996c8.589,0,16.563,4.729,20.742,12.177
	c1.408,0.076,2.82,0.312,4.211,0.704c8.259,2.319,14.023,9.928,14.023,18.502C90.057,54.939,81.427,63.57,70.818,63.57z
	 M19.183,30.163c-2.114,0-4.166,0.469-6.096,1.394c-4.908,2.351-8.079,7.364-8.079,12.778c0,7.815,6.358,14.175,14.175,14.175
	h51.635c7.813,0,14.176-6.355,14.176-14.175c0-6.315-4.25-11.922-10.336-13.631c-1.254-0.354-2.523-0.536-3.779-0.542l-2.162,0.107
	l-0.724-1.527c-3.089-6.518-9.729-10.73-16.918-10.73c-1.81,0-3.608,0.264-5.349,0.784c-3.858,1.156-7.313,3.591-9.724,6.856
	l-1.859,2.522l-2.074-2.35c-0.986-1.119-2.327-1.735-3.776-1.735c-2.421,0-4.509,1.725-4.963,4.101l-0.434,2.268l-2.298-0.226
	C20.122,30.187,19.645,30.163,19.183,30.163z"/>
<path fill="#414042" d="M44.275,13.947c2.213-0.661,4.5-0.996,6.8-0.996c0.284,0,0.565,0.019,0.85,0.029
	c1.874-5.091,6.752-8.575,12.171-8.575c7.161,0,12.987,5.905,12.987,13.164c0,0.563-0.038,1.141-0.119,1.769l0.021,0.821h0.82
	c4.324,0,7.846,3.568,7.846,7.954c0,1.135-0.238,2.23-0.682,3.237c1.08,1.179,2.018,2.485,2.777,3.894
	C89.16,33.228,90,30.771,90,28.113c0-5.444-3.518-10.229-8.613-11.816C80.74,7.116,73.243,0,64.096,0
	c-6.668,0-12.762,3.909-15.643,9.997c-3.469,0.341-7.795,2.21-9.482,6.3C40.637,15.304,42.417,14.503,44.275,13.947z"/>
</svg>
