<?xml version="1.0" encoding="utf-8"?>
<!-- Generator: Adobe Illustrator 16.0.0, SVG Export Plug-In . SVG Version: 6.00 Build 0)  -->
<!DOCTYPE svg PUBLIC "-//W3C//DTD SVG 1.1//EN" "http://www.w3.org/Graphics/SVG/1.1/DTD/svg11.dtd">
<svg version="1.1" id="Layer_1" xmlns="http://www.w3.org/2000/svg" xmlns:xlink="http://www.w3.org/1999/xlink" x="0px" y="0px"
	 width="90px" height="90px" viewBox="0 0 90 90" enable-background="new 0 0 90 90" xml:space="preserve">
<path fill="#414042" d="M76.152,25.831c-1.391-0.393-2.803-0.628-4.211-0.704c-4.18-7.448-12.154-12.177-20.743-12.177
	c-2.3,0-4.587,0.335-6.799,0.996c-4.048,1.212-7.744,3.531-10.629,6.636c-1.595-1.006-3.447-1.555-5.351-1.555
	c-4.085,0-7.696,2.454-9.274,6.074c-2.819,0.023-5.551,0.659-8.12,1.889C4.37,30.174,0.07,36.982,0.07,44.333
	c0,10.606,8.63,19.237,19.236,19.237h5.798v-5.063h-5.798c-7.816,0-14.175-6.357-14.175-14.175c0-5.415,3.171-10.43,8.079-12.778
	c1.931-0.925,3.982-1.394,6.096-1.394c0.461,0,0.938,0.024,1.417,0.07l2.298,0.225l0.434-2.268c0.454-2.376,2.542-4.101,4.963-4.101
	c1.449,0,2.79,0.616,3.777,1.735l2.073,2.35l1.86-2.522c2.41-3.266,5.862-5.701,9.72-6.856c1.74-0.52,3.541-0.784,5.35-0.784
	c7.188,0,13.828,4.212,16.918,10.73l0.724,1.527l2.162-0.107c1.256,0.006,2.524,0.188,3.778,0.542
	c6.087,1.709,10.337,7.315,10.337,13.631c0,7.817-6.358,14.175-14.175,14.175h-7.547v5.063h7.547
	c10.606,0,19.235-8.631,19.235-19.237C90.18,35.759,84.41,28.15,76.152,25.831z"/>
<path fill="#414042" d="M54.167,55.271c-0.002-1.604,1.295-2.899,2.896-2.896l0,0c1.602-0.003,2.897,1.293,2.896,2.896v7.563
	c0.002,1.6-1.295,2.895-2.896,2.895l0,0c-1.602,0.002-2.896-1.295-2.896-2.893V55.271z"/>
<path fill="#414042" d="M54.834,73.105c-0.002-1.604,1.295-2.9,2.896-2.897l0,0c1.601-0.003,2.896,1.293,2.896,2.896v7.563
	c0.002,1.601-1.295,2.894-2.896,2.896l0,0c-1.603,0-2.896-1.295-2.896-2.894V73.105z"/>
<path fill="#414042" d="M29.104,73.938c-0.002-1.604,1.295-2.899,2.896-2.896l0,0c1.601-0.003,2.897,1.293,2.896,2.896V81.5
	c0.002,1.6-1.295,2.895-2.896,2.895l0,0c-1.602,0.002-2.896-1.295-2.896-2.893V73.938z"/>
<path fill="#414042" d="M42.104,65.271c-0.002-1.604,1.295-2.899,2.896-2.896l0,0c1.6-0.003,2.896,1.293,2.895,2.896v7.563
	c0.002,1.6-1.295,2.895-2.895,2.895l0,0c-1.602,0.002-2.896-1.295-2.896-2.893V65.271z"/>
<path fill="#414042" d="M29.104,56.605c-0.002-1.604,1.295-2.9,2.896-2.897l0,0c1.6-0.003,2.897,1.293,2.895,2.896v7.563
	c0.002,1.601-1.295,2.894-2.895,2.896l0,0c-1.602,0-2.896-1.295-2.896-2.894V56.605z"/>
<path fill="#414042" d="M58.779,14.213c1.131-0.692,2.454-1.098,3.874-1.098c0.224,0,0.445,0.013,0.663,0.033l0.409,0.038
	l0.116-0.395c1.121-3.815,4.682-6.479,8.659-6.479c4.977,0,9.025,4.049,9.025,9.025c0,0.386-0.027,0.782-0.084,1.212l0.015,0.563
	h0.569c3.006,0,5.452,2.446,5.452,5.453c0,1.457-0.566,2.827-1.597,3.856c-1.029,1.03-2.398,1.597-3.855,1.597h-0.951
	c1.228,0.765,2.359,1.656,3.375,2.663c3.494-1.045,6.05-4.286,6.05-8.116c0-3.732-2.443-7.012-5.984-8.101
	C84.066,8.171,78.857,3.292,72.501,3.292c-4.633,0-8.865,2.68-10.866,6.854c-2.547,0.247-4.813,1.417-6.491,3.152
	C56.383,13.51,57.6,13.813,58.779,14.213z"/>
</svg>
