<?xml version="1.0" encoding="utf-8"?>
<!-- Generator: Adobe Illustrator 16.0.0, SVG Export Plug-In . SVG Version: 6.00 Build 0)  -->
<!DOCTYPE svg PUBLIC "-//W3C//DTD SVG 1.1//EN" "http://www.w3.org/Graphics/SVG/1.1/DTD/svg11.dtd">
<svg version="1.1" id="Layer_1" xmlns="http://www.w3.org/2000/svg" xmlns:xlink="http://www.w3.org/1999/xlink" x="0px" y="0px"
	 width="90px" height="90px" viewBox="0 0 90 90" enable-background="new 0 0 90 90" xml:space="preserve">
<path fill="#414042" d="M76.152,25.831c-1.391-0.393-2.803-0.628-4.211-0.704c-4.18-7.448-12.154-12.177-20.743-12.177
	c-2.3,0-4.587,0.335-6.799,0.996c-4.048,1.212-7.744,3.531-10.629,6.636c-1.595-1.006-3.447-1.555-5.351-1.555
	c-4.085,0-7.696,2.454-9.274,6.074c-2.819,0.023-5.551,0.659-8.12,1.889C4.37,30.174,0.07,36.982,0.07,44.333
	c0,10.606,8.63,19.237,19.236,19.237h5.798v-5.063h-5.798c-7.816,0-14.175-6.356-14.175-14.175c0-5.415,3.171-10.43,8.079-12.778
	c1.931-0.925,3.982-1.394,6.096-1.394c0.461,0,0.938,0.024,1.417,0.07l2.298,0.225l0.434-2.268c0.454-2.376,2.542-4.101,4.963-4.101
	c1.449,0,2.79,0.616,3.777,1.735l2.073,2.35l1.86-2.522c2.41-3.266,5.862-5.701,9.72-6.856c1.74-0.52,3.541-0.784,5.351-0.784
	c7.188,0,13.827,4.212,16.918,10.73l0.724,1.527l2.162-0.107c1.256,0.006,2.523,0.188,3.777,0.542
	c6.088,1.709,10.338,7.315,10.338,13.631c0,7.816-6.358,14.175-14.176,14.175h-7.547v5.063h7.547
	c10.606,0,19.235-8.631,19.235-19.237C90.18,35.759,84.41,28.15,76.152,25.831z"/>
<path fill="#414042" d="M54.167,55.271c-0.002-1.604,1.295-2.899,2.896-2.896l0,0c1.603-0.003,2.897,1.293,2.896,2.896v7.563
	c0.002,1.6-1.295,2.895-2.896,2.895l0,0c-1.602,0.002-2.896-1.295-2.896-2.893V55.271z"/>
<path fill="#414042" d="M54.834,73.105c-0.002-1.604,1.295-2.9,2.896-2.897l0,0c1.601-0.003,2.896,1.293,2.896,2.896v7.563
	c0.002,1.601-1.295,2.894-2.896,2.896l0,0c-1.604,0-2.896-1.295-2.896-2.894V73.105z"/>
<path fill="#414042" d="M29.104,73.938c-0.002-1.604,1.295-2.898,2.896-2.896l0,0c1.601-0.003,2.897,1.293,2.896,2.896V81.5
	c0.002,1.6-1.295,2.895-2.896,2.895l0,0c-1.602,0.002-2.896-1.295-2.896-2.893V73.938z"/>
<path fill="#414042" d="M42.104,65.271c-0.002-1.604,1.295-2.899,2.896-2.896l0,0c1.6-0.003,2.896,1.293,2.895,2.896v7.563
	c0.002,1.6-1.295,2.895-2.895,2.895l0,0c-1.602,0.002-2.896-1.295-2.896-2.893V65.271z"/>
<path fill="#414042" d="M29.104,56.605c-0.002-1.604,1.295-2.9,2.896-2.897l0,0c1.6-0.003,2.897,1.293,2.895,2.896v7.563
	c0.002,1.601-1.295,2.894-2.895,2.896l0,0c-1.602,0-2.896-1.295-2.896-2.894V56.605z"/>
<path fill="#414042" d="M83.098,31.036c-0.98-0.973-2.086-1.845-3.287-2.594l-1.482-0.924h2.698c1.324,0,2.567-0.515,3.501-1.45
	c0.936-0.934,1.45-2.177,1.45-3.503c0-2.731-2.221-4.953-4.951-4.953H79.97l-0.027-1.05c0.058-0.485,0.084-0.86,0.084-1.225
	c0-4.701-3.824-8.525-8.525-8.525c-3.757,0-7.12,2.517-8.18,6.12l-0.232,0.79l-0.818-0.076c-0.202-0.019-0.408-0.031-0.617-0.031
	c-1.268,0-2.517,0.354-3.612,1.024l-0.199,0.123l-0.222-0.075c-1.134-0.384-2.331-0.686-3.559-0.896l-0.934-0.16l0.658-0.681
	c1.752-1.812,4.06-2.967,6.522-3.271c2.129-4.193,6.491-6.887,11.193-6.887c6.438,0,11.857,4.937,12.484,11.3
	C87.598,15.35,90,18.713,90,22.565c0,3.932-2.635,7.467-6.406,8.595l-0.285,0.085L83.098,31.036z"/>
</svg>
