<?xml version="1.0" encoding="utf-8"?>
<!-- Generator: Adobe Illustrator 16.0.0, SVG Export Plug-In . SVG Version: 6.00 Build 0)  -->
<!DOCTYPE svg PUBLIC "-//W3C//DTD SVG 1.1//EN" "http://www.w3.org/Graphics/SVG/1.1/DTD/svg11.dtd">
<svg version="1.1" id="Layer_1" xmlns="http://www.w3.org/2000/svg" xmlns:xlink="http://www.w3.org/1999/xlink" x="0px" y="0px"
	 width="90px" height="90px" viewBox="0 0 90 90" enable-background="new 0 0 90 90" xml:space="preserve">
<g>
	<path fill="#414042" d="M76.119,36.327c-3.326,0-5.107-1.139-6.538-2.054c-1.191-0.762-1.979-1.266-3.843-1.266
		c-1.861,0-2.648,0.503-3.839,1.266c-1.43,0.916-3.209,2.055-6.534,2.055s-5.105-1.139-6.536-2.054
		c-1.191-0.763-1.979-1.266-3.841-1.266c-1.862,0-2.648,0.503-3.839,1.266c-1.43,0.916-3.209,2.055-6.534,2.055
		s-5.104-1.139-6.534-2.055c-1.19-0.762-1.976-1.266-3.837-1.266s-2.647,0.503-3.837,1.266c-1.43,0.916-3.209,2.055-6.534,2.055
		s-5.104-1.139-6.535-2.055c-1.19-0.762-1.977-1.266-3.838-1.266c-1.381,0-2.5-1.119-2.5-2.5s1.119-2.5,2.5-2.5
		c3.325,0,5.104,1.139,6.535,2.055c1.19,0.762,1.977,1.266,3.838,1.266c1.861,0,2.647-0.503,3.837-1.266
		c1.43-0.916,3.209-2.055,6.533-2.055s5.104,1.139,6.533,2.055c1.19,0.762,1.977,1.266,3.837,1.266c1.861,0,2.648-0.503,3.839-1.266
		c1.43-0.916,3.209-2.055,6.535-2.055c3.326,0,5.106,1.139,6.537,2.055c1.191,0.762,1.979,1.266,3.841,1.266
		c1.861,0,2.648-0.503,3.839-1.266c1.43-0.916,3.209-2.055,6.534-2.055c3.326,0,5.107,1.139,6.538,2.054
		c1.191,0.762,1.979,1.266,3.843,1.266s2.651-0.504,3.843-1.266c1.431-0.915,3.212-2.054,6.538-2.054c1.381,0,2.5,1.119,2.5,2.5
		s-1.119,2.5-2.5,2.5c-1.864,0-2.651,0.504-3.843,1.266C81.227,35.188,79.445,36.327,76.119,36.327z"/>
</g>
<g>
	<path fill="#414042" d="M76.119,49.306c-3.326,0-5.107-1.139-6.538-2.054c-1.191-0.763-1.979-1.267-3.843-1.267
		c-1.861,0-2.648,0.504-3.839,1.266c-1.43,0.916-3.209,2.055-6.534,2.055s-5.105-1.139-6.536-2.054
		c-1.191-0.763-1.979-1.267-3.841-1.267c-1.862,0-2.648,0.504-3.839,1.266c-1.43,0.916-3.209,2.055-6.534,2.055
		s-5.104-1.139-6.534-2.055c-1.19-0.762-1.976-1.266-3.837-1.266s-2.647,0.504-3.837,1.266c-1.43,0.916-3.209,2.055-6.534,2.055
		s-5.104-1.139-6.535-2.055c-1.19-0.762-1.977-1.266-3.838-1.266c-1.381,0-2.5-1.119-2.5-2.5s1.119-2.5,2.5-2.5
		c3.325,0,5.104,1.139,6.535,2.055c1.19,0.762,1.977,1.266,3.838,1.266c1.861,0,2.647-0.503,3.837-1.266
		c1.43-0.916,3.209-2.055,6.533-2.055s5.104,1.139,6.533,2.055c1.19,0.762,1.977,1.266,3.837,1.266c1.861,0,2.648-0.503,3.839-1.266
		c1.43-0.916,3.209-2.055,6.535-2.055c3.326,0,5.106,1.139,6.537,2.055c1.191,0.762,1.979,1.266,3.841,1.266
		c1.861,0,2.648-0.503,3.839-1.266c1.43-0.916,3.209-2.055,6.534-2.055c3.326,0,5.107,1.139,6.538,2.054
		c1.191,0.762,1.979,1.266,3.843,1.266s2.651-0.504,3.843-1.266c1.431-0.915,3.212-2.054,6.538-2.054c1.381,0,2.5,1.119,2.5,2.5
		s-1.119,2.5-2.5,2.5c-1.864,0-2.651,0.504-3.843,1.267C81.227,48.167,79.445,49.306,76.119,49.306z"/>
</g>
<g>
	<path fill="#414042" d="M76.119,62.285c-3.326,0-5.107-1.139-6.538-2.054c-1.191-0.763-1.979-1.267-3.843-1.267
		c-1.861,0-2.648,0.504-3.839,1.266c-1.43,0.916-3.209,2.055-6.534,2.055s-5.105-1.139-6.536-2.054
		c-1.191-0.763-1.979-1.267-3.841-1.267c-1.862,0-2.648,0.504-3.839,1.266c-1.43,0.916-3.209,2.055-6.534,2.055
		s-5.104-1.139-6.534-2.055c-1.19-0.762-1.976-1.266-3.837-1.266s-2.647,0.504-3.837,1.266c-1.43,0.916-3.209,2.055-6.534,2.055
		s-5.104-1.139-6.535-2.055c-1.19-0.762-1.977-1.266-3.838-1.266c-1.381,0-2.5-1.119-2.5-2.5s1.119-2.5,2.5-2.5
		c3.325,0,5.104,1.14,6.535,2.055c1.19,0.763,1.977,1.266,3.838,1.266c1.861,0,2.647-0.503,3.837-1.266
		c1.43-0.915,3.209-2.055,6.533-2.055s5.104,1.14,6.533,2.055c1.19,0.763,1.977,1.266,3.837,1.266c1.861,0,2.648-0.503,3.839-1.266
		c1.43-0.915,3.209-2.055,6.535-2.055c3.326,0,5.106,1.14,6.537,2.055c1.191,0.763,1.979,1.266,3.841,1.266
		c1.861,0,2.648-0.503,3.839-1.266c1.43-0.915,3.209-2.055,6.534-2.055c3.326,0,5.107,1.14,6.538,2.055
		c1.191,0.762,1.979,1.266,3.843,1.266s2.651-0.504,3.843-1.266c1.431-0.915,3.212-2.055,6.538-2.055c1.381,0,2.5,1.119,2.5,2.5
		s-1.119,2.5-2.5,2.5c-1.864,0-2.651,0.504-3.843,1.267C81.227,61.146,79.445,62.285,76.119,62.285z"/>
</g>
</svg>
