<?xml version="1.0" encoding="utf-8"?>
<!-- Generator: Adobe Illustrator 16.0.0, SVG Export Plug-In . SVG Version: 6.00 Build 0)  -->
<!DOCTYPE svg PUBLIC "-//W3C//DTD SVG 1.1//EN" "http://www.w3.org/Graphics/SVG/1.1/DTD/svg11.dtd">
<svg version="1.1" id="Layer_1" xmlns="http://www.w3.org/2000/svg" xmlns:xlink="http://www.w3.org/1999/xlink" x="0px" y="0px"
	 width="90px" height="90px" viewBox="0 0 90 90" enable-background="new 0 0 90 90" xml:space="preserve">
<path fill="#414042" d="M76.027,25.83c-1.391-0.392-2.803-0.628-4.211-0.704c-4.18-7.448-12.154-12.177-20.743-12.177
	c-2.3,0-4.587,0.335-6.799,0.996c-4.048,1.212-7.743,3.532-10.629,6.636c-1.596-1.006-3.448-1.555-5.351-1.555
	c-4.085,0-7.696,2.453-9.274,6.074c-2.82,0.023-5.552,0.659-8.12,1.889C4.244,30.174-0.055,36.981-0.055,44.333
	c0,10.606,8.63,19.237,19.236,19.237h2.288v-5.086h-2.288c-7.817,0-14.175-6.334-14.175-14.151c0-5.414,3.171-10.429,8.079-12.778
	c1.93-0.925,3.982-1.394,6.096-1.394c0.462,0,0.939,0.024,1.418,0.07l2.298,0.225l0.434-2.268c0.454-2.376,2.542-4.101,4.963-4.101
	c1.449,0,2.79,0.616,3.777,1.735l2.073,2.35l1.86-2.522c2.41-3.265,5.862-5.7,9.721-6.856c1.74-0.52,3.539-0.784,5.349-0.784
	c7.188,0,13.829,4.212,16.918,10.73l0.724,1.527l2.162-0.107c1.256,0.006,2.525,0.188,3.779,0.542
	c6.086,1.709,10.336,7.315,10.336,13.631c0,7.817-6.359,14.175-14.176,14.175h-7.441v5.063h7.441
	c10.608,0,19.238-8.631,19.236-19.238C90.053,35.758,84.285,28.149,76.027,25.83z"/>
<path fill="#414042" d="M59.834,60.94c0,1.398-1.133,2.531-2.531,2.531H27.75c-1.398,0-2.531-1.133-2.531-2.531l0,0
	c0-1.398,1.133-2.531,2.531-2.531h29.553C58.701,58.409,59.834,59.542,59.834,60.94L59.834,60.94z"/>
<g>
	<path fill="#414042" d="M62.484,69.331c0,1.398-1.133,2.531-2.531,2.531h-8.47c-1.397,0-2.531-1.133-2.531-2.531l0,0
		c0-1.398,1.134-2.531,2.531-2.531h8.47C61.352,66.8,62.484,67.933,62.484,69.331L62.484,69.331z"/>
	<path fill="#414042" d="M44.651,69.331c0,1.398-1.133,2.531-2.531,2.531H29.65c-1.397,0-2.531-1.133-2.531-2.531l0,0
		c0-1.398,1.134-2.531,2.531-2.531h12.47C43.519,66.8,44.651,67.933,44.651,69.331L44.651,69.331z"/>
</g>
<g>
	<path fill="#414042" d="M42.237,52.55c0,1.398-1.133,2.531-2.531,2.531H29.133c-1.398,0-2.531-1.133-2.531-2.531l0,0
		c0-1.398,1.133-2.531,2.531-2.531h10.573C41.104,50.019,42.237,51.151,42.237,52.55L42.237,52.55z"/>
	<path fill="#414042" d="M61.402,52.55c0,1.398-1.133,2.531-2.531,2.531H48.298c-1.397,0-2.53-1.133-2.53-2.531l0,0
		c0-1.398,1.133-2.531,2.53-2.531h10.573C60.27,50.019,61.402,51.151,61.402,52.55L61.402,52.55z"/>
</g>
</svg>
