<?xml version="1.0" encoding="utf-8"?>
<!-- Generator: Adobe Illustrator 16.0.0, SVG Export Plug-In . SVG Version: 6.00 Build 0)  -->
<!DOCTYPE svg PUBLIC "-//W3C//DTD SVG 1.1//EN" "http://www.w3.org/Graphics/SVG/1.1/DTD/svg11.dtd">
<svg version="1.1" id="Layer_1" xmlns="http://www.w3.org/2000/svg" xmlns:xlink="http://www.w3.org/1999/xlink" x="0px" y="0px"
	 width="90px" height="90px" viewBox="0 0 90 90" enable-background="new 0 0 90 90" xml:space="preserve">
<path fill="#414042" d="M76.027,25.83c-1.391-0.392-2.803-0.628-4.211-0.704c-4.18-7.448-12.154-12.177-20.743-12.177
	c-2.3,0-4.587,0.335-6.799,0.996c-4.048,1.212-7.743,3.532-10.629,6.636c-1.596-1.006-3.448-1.555-5.351-1.555
	c-4.085,0-7.696,2.453-9.274,6.074c-2.82,0.023-5.552,0.659-8.12,1.889C4.244,30.174-0.055,36.981-0.055,44.333
	c0,10.606,8.63,19.237,19.236,19.237h2.288v-5.086h-2.288c-7.817,0-14.175-6.334-14.175-14.151c0-5.414,3.171-10.429,8.079-12.778
	c1.93-0.925,3.982-1.394,6.096-1.394c0.462,0,0.939,0.024,1.418,0.07l2.298,0.225l0.434-2.268c0.454-2.376,2.542-4.101,4.963-4.101
	c1.449,0,2.79,0.616,3.777,1.735l2.073,2.35l1.86-2.522c2.41-3.265,5.862-5.7,9.721-6.856c1.74-0.52,3.539-0.784,5.35-0.784
	c7.188,0,13.828,4.212,16.918,10.73l0.724,1.527l2.162-0.107c1.256,0.006,2.524,0.188,3.779,0.542
	c6.086,1.709,10.336,7.315,10.336,13.631c0,7.817-6.359,14.175-14.177,14.175h-7.44v5.063h7.44c10.608,0,19.238-8.631,19.236-19.237
	C90.053,35.758,84.285,28.149,76.027,25.83z"/>
<g>
	<path fill="#414042" d="M32.33,59.223c-2.04,0-3.573-0.355-4.623-1.213c-0.869-0.71-1.347-1.734-1.347-2.885c0-1.104,0.896-2,2-2
		c1.058,0,1.924,0.822,1.995,1.862c1.658,0.896,9.323-0.669,13.492-1.521c7.883-1.608,12.091-2.37,14.159-0.682
		c0.712,0.581,1.104,1.412,1.104,2.34c0,1.104-0.896,2-2,2c-0.844,0-1.566-0.523-1.859-1.263c-1.733-0.285-7.017,0.792-10.604,1.524
		C39.406,58.456,35.323,59.222,32.33,59.223z"/>
</g>
<g>
	<path fill="#414042" d="M32.33,65.613c-2.04,0-3.573-0.355-4.623-1.213c-0.869-0.71-1.347-1.734-1.347-2.885c0-1.104,0.896-2,2-2
		c1.058,0,1.924,0.822,1.995,1.862c1.658,0.896,9.323-0.669,13.492-1.521c7.883-1.608,12.091-2.371,14.159-0.682
		c0.712,0.581,1.104,1.412,1.104,2.34c0,1.104-0.896,2-2,2c-0.844,0-1.566-0.523-1.859-1.263c-1.733-0.287-7.017,0.792-10.604,1.524
		C39.406,64.847,35.323,65.612,32.33,65.613z"/>
</g>
<g>
	<path fill="#414042" d="M32.33,72.003c-2.04,0-3.573-0.355-4.623-1.213c-0.869-0.71-1.347-1.734-1.347-2.885c0-1.104,0.896-2,2-2
		c1.058,0,1.924,0.822,1.995,1.862c1.658,0.896,9.323-0.669,13.492-1.521c7.883-1.608,12.091-2.371,14.159-0.682
		c0.712,0.581,1.104,1.412,1.104,2.34c0,1.104-0.896,2-2,2c-0.844,0-1.566-0.523-1.859-1.263c-1.733-0.288-7.017,0.792-10.604,1.524
		C39.406,71.236,35.323,72.002,32.33,72.003z"/>
</g>
</svg>
